<svg width="78" height="57" viewBox="0 0 78 57" fill="none" xmlns="http://www.w3.org/2000/svg">
<path d="M40.4818 45.1114C39.9101 44.4594 37.7129 48.037 37.2905 48.5027C31.6246 54.7266 23.5097 59.7141 15.0236 55.349C5.49228 50.4461 7.6298 33.6841 18.9104 32.8838C20.2074 35.6232 20.536 37.5242 23.723 38.6716C29.982 40.9198 36.3263 36.2371 39.3853 31.1056C42.1372 26.4906 43.0588 20.2371 45.5206 16.0244C47.4746 12.6796 53.4904 11.782 53.2984 16.0879C53.2003 18.3192 50.491 23.4761 55.15 23.0781C59.7152 22.6886 62.4671 17.2607 60.3509 13.3274C56.6433 6.43459 32.2859 9.05538 34.6026 20.6648C35.2639 23.9842 38.3059 22.244 37.3972 26.1773C35.2639 35.3819 17.5963 35.7756 18.7782 21.664C20.3226 3.19565 44.6417 -2.22376 59.7707 0.778084C68.3933 2.48858 76.346 8.64046 73.3595 18.2472C71.879 23.0104 67.8258 25.0088 63.5252 26.6981C73.2229 38.0873 63.6958 56.4625 48.4175 54.3879C44.0273 53.7909 40.3538 49.5401 40.4861 45.1114H40.4818ZM51.0286 28.2646C46.152 29.3782 45.4224 40.1619 53.0552 38.7351C58.0726 37.7994 59.5275 26.3213 51.0286 28.2646Z" fill="#861F29"/>
</svg>
